<?xml version="1.0" encoding="iso-8859-1"?>
<!-- Generator: Adobe Illustrator 19.0.0, SVG Export Plug-In . SVG Version: 6.00 Build 0)  -->
<svg version="1.1" id="Layer_1" xmlns="http://www.w3.org/2000/svg" xmlns:xlink="http://www.w3.org/1999/xlink" x="0px" y="0px"
	 viewBox="0 0 475.942 475.942" style="enable-background:new 0 0 475.942 475.942;" xml:space="preserve">
<g>
	<g>
		<path d="M434.977,401.971H41.74L0.465,120.833c-1.776-12.098,1.587-24.106,9.226-32.948s19.032-13.913,31.258-13.913h123.75
			c19.672,0,37.692,12.453,45.544,30h225.102c12.267,0,23.64,5.093,31.205,13.974c7.565,8.88,10.786,20.919,8.836,33.029
			L434.977,401.971z M67.657,371.971H403.76l-31.296-150.576c-1.896-9.12-12.104-17.425-21.418-17.425H196.421l-12.206-83.138
			c-1.319-8.982-10.438-16.861-19.517-16.861H40.948c-3.554,0-6.593,1.252-8.557,3.525s-2.761,5.462-2.245,8.979L67.657,371.971z
			 M222.338,173.97h128.708c23.665,0,45.975,18.149,50.791,41.319l18.488,88.951l25.443-158.034
			c0.558-3.469-0.171-6.597-2.055-8.808c-1.883-2.21-4.855-3.428-8.368-3.428H216.465L222.338,173.97z"/>
	</g>
</g>
<g>
</g>
<g>
</g>
<g>
</g>
<g>
</g>
<g>
</g>
<g>
</g>
<g>
</g>
<g>
</g>
<g>
</g>
<g>
</g>
<g>
</g>
<g>
</g>
<g>
</g>
<g>
</g>
<g>
</g>
</svg>
